<svg xmlns="http://www.w3.org/2000/svg" width="64" height="64" viewBox="0 0 150 150" fill="white">
    <path d="m127.61,12.39h-1.22V0h-14.8v12.39H38.68V0h-14.8v12.39h-1.49C10.05,12.39,0,22.3,0,34.49v93.4c0,12.19,10.05,22.1,22.39,22.1h105.21c12.35,0,22.39-9.92,22.39-22.1V34.49c0-12.19-10.04-22.1-22.39-22.1ZM14.8,34.49c0-4.13,3.41-7.5,7.6-7.5h1.49v9.95h14.8v-9.95h72.91v9.95h14.8v-9.95h1.22c4.19,0,7.6,3.36,7.6,7.5v8.55H14.8v-8.55Zm120.41,54.62h-29.38v-31.47h29.38v31.47Zm-44.18,0h-30.75v-31.47h30.75v31.47Zm-45.55,0H14.8v-31.47h30.68v31.47Zm-30.68,38.78v-24.18h30.68v31.67h-23.08c-4.19,0-7.6-3.36-7.6-7.5Zm45.47-24.18h30.75v31.67h-30.75v-31.67Zm74.93,24.18c0,4.13-3.41,7.5-7.6,7.5h-21.79v-31.67h29.38v24.18Z"/>
</svg>